<svg width="46" height="52" viewBox="0 0 46 52" fill="none" xmlns="http://www.w3.org/2000/svg">
<path d="M7.098 22.26C5.798 22.26 4.61067 22.0087 3.536 21.506C2.46133 21.0033 1.612 20.2927 0.988 19.374L2.912 17.71C3.29333 18.4207 3.83933 18.9927 4.55 19.426C5.278 19.842 6.14467 20.05 7.15 20.05C7.94733 20.05 8.58 19.9113 9.048 19.634C9.516 19.3567 9.75 18.9667 9.75 18.464C9.75 18.1347 9.63733 17.8487 9.412 17.606C9.204 17.346 8.79667 17.1467 8.19 17.008L5.46 16.436C4.07333 16.1587 3.08533 15.7167 2.496 15.11C1.90667 14.486 1.612 13.6973 1.612 12.744C1.612 12.0333 1.82 11.3747 2.236 10.768C2.652 10.1613 3.25867 9.676 4.056 9.312C4.87067 8.93067 5.84133 8.74 6.968 8.74C8.268 8.74 9.37733 8.974 10.296 9.442C11.2147 9.89267 11.9167 10.5427 12.402 11.392L10.478 13.004C10.1487 12.3107 9.66333 11.7993 9.022 11.47C8.38067 11.1233 7.71333 10.95 7.02 10.95C6.46533 10.95 5.98867 11.0193 5.59 11.158C5.19133 11.2967 4.888 11.4873 4.68 11.73C4.472 11.9727 4.368 12.2587 4.368 12.588C4.368 12.9347 4.498 13.238 4.758 13.498C5.018 13.758 5.486 13.9573 6.162 14.096L9.126 14.72C10.374 14.9627 11.2493 15.3787 11.752 15.968C12.272 16.54 12.532 17.242 12.532 18.074C12.532 18.906 12.3153 19.6427 11.882 20.284C11.4487 20.908 10.8247 21.3933 10.01 21.74C9.19533 22.0867 8.22467 22.26 7.098 22.26ZM36.9119 8.74C38.1772 8.74 39.2952 9.00867 40.2659 9.546C41.2365 10.0833 41.9905 10.8633 42.5279 11.886C43.0825 12.8913 43.3599 14.096 43.3599 15.5C43.3599 16.904 43.0825 18.1173 42.5279 19.14C41.9905 20.1453 41.2365 20.9167 40.2659 21.454C39.2952 21.9913 38.1772 22.26 36.9119 22.26C35.6465 22.26 34.5285 21.9913 33.5579 21.454C32.5872 20.9167 31.8245 20.1453 31.2699 19.14C30.7152 18.1173 30.4379 16.904 30.4379 15.5C30.4379 14.096 30.7152 12.8913 31.2699 11.886C31.8245 10.8633 32.5872 10.0833 33.5579 9.546C34.5285 9.00867 35.6465 8.74 36.9119 8.74ZM36.9119 10.924C36.1319 10.924 35.4645 11.106 34.9099 11.47C34.3725 11.8167 33.9565 12.328 33.6619 13.004C33.3672 13.68 33.2199 14.512 33.2199 15.5C33.2199 16.4707 33.3672 17.3027 33.6619 17.996C33.9565 18.672 34.3725 19.192 34.9099 19.556C35.4645 19.9027 36.1319 20.076 36.9119 20.076C37.6919 20.076 38.3505 19.9027 38.8879 19.556C39.4252 19.192 39.8412 18.672 40.1359 17.996C40.4305 17.3027 40.5779 16.4707 40.5779 15.5C40.5779 14.512 40.4305 13.68 40.1359 13.004C39.8412 12.328 39.4252 11.8167 38.8879 11.47C38.3505 11.106 37.6919 10.924 36.9119 10.924ZM2.158 48V29.15H4.94V37.08C5.37333 36.2653 5.954 35.676 6.682 35.312C7.42733 34.9307 8.25067 34.74 9.152 34.74C10.0707 34.74 10.894 34.922 11.622 35.286C12.3673 35.6327 12.9567 36.1613 13.39 36.872C13.8233 37.5827 14.04 38.484 14.04 39.576V48H11.258V40.46C11.258 39.1773 10.9893 38.2847 10.452 37.782C9.932 37.2793 9.27333 37.028 8.476 37.028C7.92133 37.028 7.36667 37.1667 6.812 37.444C6.27467 37.704 5.824 38.1373 5.46 38.744C5.11333 39.3333 4.94 40.1307 4.94 41.136V48H2.158ZM23.4557 48.26C22.1557 48.26 21.0117 47.9913 20.0237 47.454C19.0357 46.9167 18.2643 46.1453 17.7097 45.14C17.1723 44.1173 16.9037 42.904 16.9037 41.5C16.9037 40.096 17.1723 38.8913 17.7097 37.886C18.2643 36.8633 19.027 36.0833 19.9977 35.546C20.9683 35.0087 22.069 34.74 23.2997 34.74C24.565 34.74 25.6397 35 26.5237 35.52C27.4077 36.04 28.0837 36.7507 28.5517 37.652C29.0197 38.5533 29.2537 39.576 29.2537 40.72C29.2537 41.032 29.245 41.3267 29.2277 41.604C29.2103 41.8813 29.1843 42.124 29.1497 42.332H18.6977V40.2H27.9277L26.5497 40.616C26.5497 39.4373 26.255 38.536 25.6657 37.912C25.0763 37.2707 24.2703 36.95 23.2477 36.95C22.5023 36.95 21.8523 37.1233 21.2977 37.47C20.743 37.8167 20.3183 38.3367 20.0237 39.03C19.729 39.706 19.5817 40.538 19.5817 41.526C19.5817 42.4967 19.7377 43.32 20.0497 43.996C20.3617 44.672 20.8037 45.1833 21.3757 45.53C21.9477 45.8767 22.6237 46.05 23.4037 46.05C24.2703 46.05 24.9723 45.8853 25.5097 45.556C26.047 45.2267 26.4717 44.7673 26.7837 44.178L28.9937 45.218C28.6817 45.842 28.257 46.388 27.7197 46.856C27.1997 47.3067 26.5757 47.6533 25.8477 47.896C25.1197 48.1387 24.3223 48.26 23.4557 48.26ZM37.9669 48.26C36.6669 48.26 35.5229 47.9913 34.5349 47.454C33.5469 46.9167 32.7756 46.1453 32.2209 45.14C31.6836 44.1173 31.4149 42.904 31.4149 41.5C31.4149 40.096 31.6836 38.8913 32.2209 37.886C32.7756 36.8633 33.5382 36.0833 34.5089 35.546C35.4796 35.0087 36.5802 34.74 37.8109 34.74C39.0762 34.74 40.1509 35 41.0349 35.52C41.9189 36.04 42.5949 36.7507 43.0629 37.652C43.5309 38.5533 43.7649 39.576 43.7649 40.72C43.7649 41.032 43.7562 41.3267 43.7389 41.604C43.7216 41.8813 43.6956 42.124 43.6609 42.332H33.2089V40.2H42.4389L41.0609 40.616C41.0609 39.4373 40.7662 38.536 40.1769 37.912C39.5876 37.2707 38.7816 36.95 37.7589 36.95C37.0136 36.95 36.3636 37.1233 35.8089 37.47C35.2542 37.8167 34.8296 38.3367 34.5349 39.03C34.2402 39.706 34.0929 40.538 34.0929 41.526C34.0929 42.4967 34.2489 43.32 34.5609 43.996C34.8729 44.672 35.3149 45.1833 35.8869 45.53C36.4589 45.8767 37.1349 46.05 37.9149 46.05C38.7816 46.05 39.4836 45.8853 40.0209 45.556C40.5582 45.2267 40.9829 44.7673 41.2949 44.178L43.5049 45.218C43.1929 45.842 42.7682 46.388 42.2309 46.856C41.7109 47.3067 41.0869 47.6533 40.3589 47.896C39.6309 48.1387 38.8336 48.26 37.9669 48.26Z" fill="black"/>
</svg>
